# xmcd
#
# Track frame offsets: 
#        182
#        9987
#        19947
#        28762
#        41232
#        52712
#        64820
#        76735
#        87512
#        99355
#        111957
#        125337
#        139955
#        155440
#        169837
#        181915
#        192767
#        205067
#        218152
#        231390
#        242720
#        254587
#        273817
#        287305
#
# Disc length: 3989 seconds
#
# Revision: 6
# Processed by: cddbd v1.5.2PL0 Copyright (c) Steve Scherf et al.
# Submitted via: ExactAudioCopyFreeDBPlugin 1.0
#
DISCID=480f9318
DTITLE=Otis Redding - Otis!:  The Definitive Otis Redding [Rhino box s
DTITLE=et]
DYEAR=1993
DGENRE=Soul
TTITLE0=She's All Right (as "The Shooters featuring Otis")
TTITLE1=Gettin' Hip
TTITLE2=Shout Bamalama (as "Otis Redding and The Pinetoppers")
TTITLE3=Hey Hey Baby
TTITLE4=These Arms of Mine
TTITLE5=That's What My Heart Needs
TTITLE6=Mary's Little Lamb
TTITLE7=Pain in My Heart
TTITLE8=Security
TTITLE9=Come to Me
TTITLE10=Don't Leave Me This Way
TTITLE11=Little Ol' Me
TTITLE12=Don't Be Afraid of Love
TTITLE13=Your One and Only Man
TTITLE14=Chained and Bound
TTITLE15=That's How Strong My Love Is
TTITLE16=Mr. Pitiful
TTITLE17=For Your Precious Love
TTITLE18=I've Been Loving You Too Long (To Stop Now)
TTITLE19=I'm Depending on You
TTITLE20=Ole Man Trouble
TTITLE21=Change Gonna Come
TTITLE22=Down in the Valley
TTITLE23=Shake
EXTD=YEAR: 1993
EXTT0=The Shooters featuring Otis
EXTT1=
EXTT2=Otis Redding and The Pinetoppers
EXTT3=
EXTT4=
EXTT5=
EXTT6=
EXTT7=
EXTT8=
EXTT9=
EXTT10=
EXTT11=
EXTT12=
EXTT13=
EXTT14=
EXTT15=
EXTT16=
EXTT17=
EXTT18=
EXTT19=
EXTT20=
EXTT21=
EXTT22=
EXTT23=
PLAYORDER=
